<svg xmlns="http://www.w3.org/2000/svg" viewBox="0 0 108 108" width="108" height="108">
  <!-- Shield shape -->
  <path fill="#6C5CE7" d="M54,20 L78,28 L78,54 Q78,72 54,88 Q30,72 30,54 L30,28 Z"/>
  <!-- Shield highlight -->
  <path fill="#A855F7" fill-opacity="0.3" d="M54,20 L78,28 L78,45 Q78,55 54,65 Q40,58 30,45 L30,28 Z"/>
  <!-- QR Code pattern -->
  <g transform="translate(42,36)">
    <path fill="#FFFFFF" d="M0,0 L8,0 L8,8 L0,8 Z M2,2 L2,6 L6,6 L6,2 Z M3,3 L5,3 L5,5 L3,5 Z"/>
    <path fill="#FFFFFF" d="M16,0 L24,0 L24,8 L16,8 Z M18,2 L18,6 L22,6 L22,2 Z M19,3 L21,3 L21,5 L19,5 Z"/>
    <path fill="#FFFFFF" d="M0,16 L8,16 L8,24 L0,24 Z M2,18 L2,22 L6,22 L6,18 Z M3,19 L5,19 L5,21 L3,21 Z"/>
    <path fill="#FFFFFF" d="M10,2 L12,2 L12,4 L10,4 Z"/>
    <path fill="#FFFFFF" d="M10,10 L12,10 L12,12 L10,12 Z"/>
    <path fill="#FFFFFF" d="M16,10 L18,10 L18,12 L16,12 Z"/>
    <path fill="#FFFFFF" d="M20,16 L24,16 L24,18 L20,18 Z"/>
    <path fill="#FFFFFF" d="M16,20 L18,20 L18,24 L16,24 Z"/>
    <path fill="#FFFFFF" d="M10,18 L14,18 L14,20 L10,20 Z"/>
  </g>
  <!-- Checkmark -->
  <circle fill="#00D68F" cx="54" cy="70" r="8"/>
  <polyline fill="none" stroke="#FFFFFF" stroke-width="2" stroke-linecap="round" stroke-linejoin="round" points="50,70 53,73 58,67"/>
</svg>
